<?xml version="1.0" encoding="UTF-8"?>
<svg width="14px" height="17px" viewBox="0 0 14 17" version="1.1" xmlns="http://www.w3.org/2000/svg" xmlns:xlink="http://www.w3.org/1999/xlink">
    <!-- Generator: Sketch 47.1 (45422) - http://www.bohemiancoding.com/sketch -->
    <title>Shape</title>
    <desc>Created with Sketch.</desc>
    <defs></defs>
    <g id="Page-1" stroke="none" stroke-width="1" fill="none" fill-rule="evenodd">
        <g id="Wallet" transform="translate(-558.000000, -299.000000)" fill-rule="nonzero" fill="#A7A7A7">
            <g id="4" transform="translate(208.000000, 289.000000)">
                <g id="copy" transform="translate(350.000000, 10.731707)">
                    <path d="M11.6275572,0 L4.79229522,0 C3.79942408,0 2.9916225,0.771758178 2.9916225,1.72032829 L2.9916225,1.93146688 L1.80067272,1.93146688 C0.807801573,1.93146688 0,2.70322506 0,3.65179517 L0,13.8234378 C0,14.7720079 0.807801573,15.543766 1.80067272,15.543766 L8.63593466,15.543766 C9.62880581,15.543766 10.4365299,14.7720079 10.4365299,13.8234378 L10.4365299,13.6122992 L11.6274797,13.6122992 C12.6203509,13.6122992 13.4281525,12.840541 13.4281525,11.8919709 L13.4281525,1.72032829 C13.4282299,0.771758178 12.6204283,0 11.6275572,0 Z M9.27508288,13.8234378 C9.27508288,14.1601202 8.9883412,14.4340677 8.6360121,14.4340677 L1.80067272,14.4340677 C1.44826618,14.4340677 1.1615245,14.1601202 1.1615245,13.8234378 L1.1615245,3.65172119 C1.1615245,3.31503872 1.44826618,3.0410912 1.80067272,3.0410912 L8.63593466,3.0410912 C8.9883412,3.0410912 9.27500544,3.31503872 9.27500544,3.65172119 L9.27500544,13.8234378 L9.27508288,13.8234378 Z M12.2667054,11.8919709 C12.2667054,12.2286533 11.9799637,12.5026009 11.6275572,12.5026009 L10.4366074,12.5026009 L10.4366074,3.65172119 C10.4366074,2.70315108 9.62880581,1.9313929 8.6360121,1.9313929 L4.15314701,1.9313929 L4.15314701,1.72025431 C4.15314701,1.38357184 4.43988869,1.10962432 4.79229522,1.10962432 L11.6275572,1.10962432 C11.9799637,1.10962432 12.2667054,1.38357184 12.2667054,1.72025431 L12.2667054,11.8919709 Z" id="Shape"></path>
                </g>
            </g>
        </g>
    </g>
</svg>