<?xml version="1.0" encoding="UTF-8"?>
<svg width="16px" height="16px" viewBox="0 0 16 16" version="1.1" xmlns="http://www.w3.org/2000/svg" xmlns:xlink="http://www.w3.org/1999/xlink">
    <!-- Generator: Sketch 47.1 (45422) - http://www.bohemiancoding.com/sketch -->
    <title>pick-2</title>
    <desc>Created with Sketch.</desc>
    <defs></defs>
    <g id="Symbols" stroke="none" stroke-width="1" fill="none" fill-rule="evenodd">
        <g id="icon/menu/mining" transform="translate(-4.000000, -4.000000)" fill-rule="nonzero" fill="#FFFFFF">
            <g id="pick-2" transform="translate(4.000000, 4.000000)">
                <path d="M8.5226875,5.34434375 L0.4555625,13.4115 C-0.12840625,13.9955 -0.154125,14.946875 0.42,15.5405312 C1.00653125,16.1469687 1.97371875,16.153125 2.56796875,15.558875 L10.686125,7.44071875 C10.04425,6.71821875 9.0196875,5.7865625 8.5226875,5.34434375 Z" id="Shape"></path>
                <path d="M13.7170312,5.0046875 C13.5704375,4.80990625 13.5899687,4.53684375 13.762375,4.3644375 L14.13475,3.9920625 C14.71875,3.4080625 14.7445,2.45665625 14.1703437,1.863 C13.5837812,1.25659375 12.616625,1.2504375 12.0224375,1.8446875 L11.6325,2.23459375 C11.4602187,2.406875 11.1871875,2.42659375 10.9924687,2.2800625 C8.04934375,0.06490625 4.7070625,-0.57065625 2.99984375,0.52490625 C2.91240625,0.581 2.8519375,0.67346875 2.8455,0.777125 C2.8355625,0.93678125 2.941375,1.0735625 3.08946875,1.10928125 C5.00946875,1.572 7.2729375,2.71315625 9.29321875,4.5738125 C9.84709375,5.0839375 10.9097187,6.15278125 11.4230937,6.7036875 C13.2929687,8.7101875 14.4215,10.9812188 14.8856562,12.8993125 C14.909625,12.9984063 14.9754375,13.0842188 15.0689687,13.1248438 C15.2169375,13.1890938 15.38275,13.1348438 15.4660625,13.0061563 C16.5690937,11.3025 15.9371875,7.9541875 13.7170312,5.0046875 Z" id="Shape"></path>
            </g>
        </g>
    </g>
</svg>