<?xml version="1.0" encoding="UTF-8"?>
<svg width="16px" height="19px" viewBox="0 0 16 19" version="1.1" xmlns="http://www.w3.org/2000/svg" xmlns:xlink="http://www.w3.org/1999/xlink">
    <!-- Generator: Sketch 47.1 (45422) - http://www.bohemiancoding.com/sketch -->
    <title>database</title>
    <desc>Created with Sketch.</desc>
    <defs></defs>
    <g id="Symbols" stroke="none" stroke-width="1" fill="none" fill-rule="evenodd">
        <g id="icon/menu/perfomance" transform="translate(-4.000000, -3.000000)" fill-rule="nonzero" fill="#FFFFFF">
            <g id="database" transform="translate(4.000000, 3.000000)">
                <path d="M8.69239216,10.374902 C8.41945098,10.3833725 8.1465098,10.3880784 7.87482353,10.3880784 C7.60219608,10.3880784 7.32831373,10.3836863 7.0547451,10.374902 C4.75168627,10.3118431 2.91639216,9.9865098 1.59498039,9.5225098 C0.973803922,9.31294118 0.442039216,9.06635294 0.031372549,8.78431373 L0.031372549,11.0152157 L0.031372549,11.1720784 L0.031372549,11.3289412 L0.031372549,11.7333333 C0.924235294,12.6654118 3.91968627,13.5250196 7.8745098,13.5250196 C11.8293333,13.5250196 14.8247843,12.6654118 15.7176471,11.7333333 L15.7176471,11.3289412 L15.7176471,11.1720784 L15.7176471,11.0152157 L15.7176471,8.78431373 C15.3041569,9.06823529 14.7676863,9.31670588 14.1411765,9.52690196 C12.8203922,9.98870588 10.9888627,10.3121569 8.69239216,10.374902 Z" id="Shape"></path>
                <path d="M0.031372549,4.67105882 L0.031372549,6.90196078 L0.031372549,7.05882353 L0.031372549,7.21568627 L0.031372549,7.62007843 C0.858980392,8.48407843 3.49270588,9.28596078 7.02305882,9.39827451 C7.05913725,9.39952941 7.09615686,9.39984314 7.13254902,9.40078431 C7.23482353,9.40360784 7.33678431,9.40643137 7.44062745,9.408 C7.584,9.4105098 7.72862745,9.41176471 7.8745098,9.41176471 C8.02039216,9.41176471 8.16501961,9.4105098 8.30839216,9.40831373 C8.41192157,9.4067451 8.51419608,9.40392157 8.61647059,9.40109804 C8.65286275,9.40015686 8.68988235,9.39952941 8.72596078,9.39858824 C12.2563137,9.28596078 14.8900392,8.48407843 15.7176471,7.62039216 L15.7176471,7.21568627 L15.7176471,7.05882353 L15.7176471,6.90196078 L15.7176471,4.67105882 C14.1907451,5.71984314 10.9628235,6.2745098 7.8745098,6.2745098 C4.78619608,6.2745098 1.55858824,5.71984314 0.031372549,4.67105882 Z" id="Shape"></path>
                <path d="M15.6752941,2.67984314 C15.3232941,1.3305098 12.6164706,0 7.8745098,0 C3.14447059,0 0.440470588,1.32392157 0.0774901961,2.66980392 C0.0508235294,2.71592157 0.031372549,2.76643137 0.031372549,2.82352941 L0.031372549,2.98039216 L0.031372549,3.54698039 C0.921411765,4.47592157 3.89552941,5.33333333 7.8745098,5.33333333 C11.8534902,5.33333333 14.8279216,4.47592157 15.7176471,3.54698039 L15.7176471,2.98039216 L15.7176471,2.82352941 C15.7176471,2.77082353 15.7000784,2.72345098 15.6752941,2.67984314 Z" id="Shape"></path>
                <path d="M0.031372549,12.8627451 L0.031372549,15.4356078 C0.031372549,15.4864314 0.0448627451,15.5344314 0.0680784314,15.577098 C0.438588235,17.1127843 3.75341176,18.2591373 7.8745098,18.2591373 C11.9861961,18.2591373 15.2956863,17.1174902 15.6784314,15.587451 C15.7035294,15.5422745 15.7176471,15.4905098 15.7176471,15.4356078 L15.7176471,12.8633725 C14.4203922,13.7766275 11.747451,14.4944314 7.8745098,14.4944314 C4.0012549,14.4944314 1.32831373,13.776 0.031372549,12.8627451 Z" id="Shape"></path>
            </g>
        </g>
    </g>
</svg>