<?xml version="1.0" encoding="UTF-8"?>
<svg width="18px" height="18px" viewBox="0 0 18 18" version="1.1" xmlns="http://www.w3.org/2000/svg" xmlns:xlink="http://www.w3.org/1999/xlink">
    <!-- Generator: Sketch 47.1 (45422) - http://www.bohemiancoding.com/sketch -->
    <title>ic_settings</title>
    <desc>Created with Sketch.</desc>
    <defs></defs>
    <g id="Symbols" stroke="none" stroke-width="1" fill="none" fill-rule="evenodd">
        <g id="icon/menu/settings" transform="translate(-3.000000, -3.000000)" fill="#FFFFFF">
            <path d="M12,15.9141429 C9.8385,15.9141429 8.08607143,14.1617143 8.08607143,12 C8.08607143,9.83828571 9.8385,8.08607143 12,8.08607143 C14.1617143,8.08607143 15.9139286,9.83828571 15.9139286,12 C15.9139286,14.1617143 14.1617143,15.9141429 12,15.9141429 M19.2687857,12 C19.2687857,10.8777857 19.9596429,9.99192857 21,9.38292857 C20.8127143,8.75657143 20.5643571,8.15657143 20.2587857,7.5915 C19.0922143,7.89685714 18.1478571,7.43978571 17.3541429,6.64607143 C16.5604286,5.85235714 16.3174286,4.90778571 16.6227857,3.74142857 C16.0581429,3.43585714 15.4581429,3.18728571 14.8313571,3 C14.2223571,4.04078571 13.1224286,4.73121429 12,4.73121429 C10.8777857,4.73121429 9.77785714,4.04078571 9.16864286,3 C8.54207143,3.18707143 7.94207143,3.43585714 7.37742857,3.741 C7.68257143,4.90778571 7.43978571,5.85214286 6.64607143,6.64607143 C5.85235714,7.43978571 4.90757143,7.89685714 3.74121429,7.59192857 C3.43564286,8.15657143 3.18728571,8.75657143 3,9.38292857 C4.04035714,9.99192857 4.73121429,10.8777857 4.73121429,12 C4.73121429,13.1224286 4.04035714,14.2223571 3,14.8313571 C3.18728571,15.4579286 3.43564286,16.0579286 3.74121429,16.623 C4.90778571,16.3176429 5.85235714,16.5606429 6.64607143,17.3543571 C7.43957143,18.1480714 7.68257143,19.0924286 7.37742857,20.259 C7.94207143,20.5643571 8.54207143,20.8131429 9.16885714,21 C9.77807143,19.9596429 10.8777857,19.2687857 12,19.2687857 C13.1224286,19.2687857 14.2223571,19.9596429 14.8313571,21 C15.4581429,20.8127143 16.0581429,20.5643571 16.623,20.2585714 C16.3178571,19.0924286 16.5604286,18.1480714 17.3541429,17.3543571 C18.1478571,16.5606429 19.0924286,16.1033571 20.2587857,16.4087143 C20.5643571,15.8436429 20.8127143,15.2436429 21,14.6170714 C19.9596429,14.0080714 19.2687857,13.1224286 19.2687857,12" id="ic_settings"></path>
        </g>
    </g>
</svg>