<?xml version="1.0" encoding="UTF-8"?>
<svg width="18px" height="15px" viewBox="0 0 18 15" version="1.1" xmlns="http://www.w3.org/2000/svg" xmlns:xlink="http://www.w3.org/1999/xlink">
    <!-- Generator: Sketch 47.1 (45422) - http://www.bohemiancoding.com/sketch -->
    <title>feminine-fashion-handbag-for-money</title>
    <desc>Created with Sketch.</desc>
    <defs></defs>
    <g id="Symbols" stroke="none" stroke-width="1" fill="none" fill-rule="evenodd">
        <g id="icon/menu/wallet" transform="translate(-3.000000, -5.000000)" fill-rule="nonzero" fill="#FFFFFF">
            <g id="feminine-fashion-handbag-for-money" transform="translate(3.000000, 5.000000)">
                <path d="M2.3057314,14.7110491 L8.83458865,14.7110491 L15.3634652,14.7110491 C16.3223457,14.7110491 17.0998685,13.9175877 17.0998685,12.939051 L17.0998685,9.96802066 C17.0998685,9.2966106 15.6446009,8.80332294 15.2452282,8.33472789 C15.0349304,8.07678404 14.2974392,8.33120063 14.0292614,6.30127841 C13.9636832,5.8129945 14.1005871,4.77226119 13.6182528,4.77226119 L8.83458865,4.16641513 L3.78009588,4.65610574 C3.29776162,4.65610574 3.6604116,5.45477094 3.61685902,5.94388317 C3.34868117,8.95562357 2.71777732,8.07678404 2.50747958,8.33472789 C2.10810681,8.80332294 0.571257404,9.29859917 0.571257404,9.96802066 L0.571257404,12.939051 C0.569328067,13.9175877 1.34685089,14.7110491 2.3057314,14.7110491 Z" id="Shape"></path>
                <path d="M1.44331775,3.97667866 C1.27546542,4.92174429 0.908891385,6.23696062 0.121721874,7.1446174 C-0.0557771338,7.34741274 -0.0364837634,7.65849684 0.162237952,7.83963442 C0.254846129,7.92232766 0.368677015,7.96367428 0.4825079,7.96367428 C0.615632156,7.96367428 0.748756411,7.90854545 0.843293926,7.79830749 C1.77902239,6.72130676 2.20347654,5.22300365 2.39255157,4.15387846 C2.50059444,3.54352358 3.01958611,3.10052406 3.62732727,3.10052406 L8.56064208,3.10052406 L14.0437987,3.10052406 C14.6496105,3.10052406 15.1686214,3.54352358 15.2785744,4.15387846 C15.4695787,5.22298396 15.8921228,6.72130676 16.8278513,7.79830749 C16.9223695,7.90856514 17.0555131,7.96367428 17.188618,7.96367428 C17.3024489,7.96367428 17.4162991,7.92232766 17.5089073,7.83963442 C17.707629,7.65849684 17.7269224,7.34741274 17.5494233,7.1446174 C16.7622538,6.23892951 16.3956798,4.92174429 16.2278275,3.97667866 C16.0348938,2.89772873 15.1165293,2.11411181 14.0438179,2.11411181 L9.63142414,2.11411181 L9.92082469,1.76955664 C9.95169408,1.77349441 9.98063414,1.7754633 10.0114842,1.7754633 C10.4996258,1.7754633 10.8931913,1.36199708 10.8738979,0.859930967 C10.8565532,0.403149246 10.4918892,0.0310296548 10.0462316,0.015278561 C9.55425066,-0.00441030627 9.14908988,0.397242586 9.14908988,0.895370929 C9.14908988,1.02334857 9.1760813,1.14541954 9.22431473,1.2556772 L8.93877285,1.5962946 C8.88475141,1.66126787 8.78830385,1.66126787 8.73428241,1.5962946 L8.45257991,1.26158386 C8.50853069,1.12966845 8.53361207,0.980033058 8.51817737,0.82252212 C8.47573196,0.40118036 8.13809798,0.0645007292 7.72329051,0.0349674283 C7.21780421,-0.00244141954 6.79720873,0.405118133 6.79720873,0.913090909 C6.79720873,1.39940593 7.18307614,1.79318328 7.65962239,1.79318328 C7.6962605,1.79318328 7.73100786,1.79121439 7.76573593,1.78530773 L8.03970179,2.11214293 L3.62730798,2.11214293 C2.55461588,2.11411181 1.63625145,2.89772873 1.44331775,3.97667866 Z" id="Shape"></path>
            </g>
        </g>
    </g>
</svg>