<?xml version="1.0" encoding="UTF-8"?>
<svg width="165px" height="38px" viewBox="0 0 165 38" version="1.1" xmlns="http://www.w3.org/2000/svg" xmlns:xlink="http://www.w3.org/1999/xlink">
    <!-- Generator: sketchtool 47.1 (45422) - http://www.bohemiancoding.com/sketch -->
    <title>074A06AE-5A7D-4F67-B9B2-905DEC2BF66C</title>
    <desc>Created with sketchtool.</desc>
    <defs></defs>
    <g id="Page-1" stroke="none" stroke-width="1" fill="none" fill-rule="evenodd">
        <g id="Enter-seed-(error)" transform="translate(-368.000000, -32.000000)">
            <g id="logo" transform="translate(368.000000, 32.000000)">
                <polygon id="Clip-32" points="0.0362637363 37.8069355 0.0362637363 0.483580645 36.9497253 0.483580645 36.9497253 37.8069355 0.0362637363 37.8069355"></polygon>
                <g id="Group">
                    <path d="M7.68065934,2.19664516 C7.68065934,2.19664516 4.40181319,9.03296774 3.02016484,15.8705161 C1.66450549,22.7135806 2.05675824,30.3056129 2.05675824,30.3056129 C2.05675824,30.3056129 8.91181319,33.6863871 15.6792308,35.0789032 C22.4466484,36.4708065 30.0523626,36.1012258 30.0523626,36.1012258 C30.0523626,36.1012258 33.3378571,29.2305806 34.7195055,22.3930323 C36.0751648,15.5499677 35.6901648,7.9236129 35.6901648,7.9236129 C35.6901648,7.9236129 28.8278571,4.57716129 22.0604396,3.18525806 C15.2936264,1.79274194 7.68065934,2.19664516 7.68065934,2.19664516" id="Fill-31" fill="#292D78"></path>
                    <path d="M10.3424176,0.483580645 C10.3424176,0.483580645 5.94483516,6.64080645 3.41543956,13.1314516 C0.911428571,19.633129 0,27.1791935 0,27.1791935 C0,27.1791935 6.1739011,31.7134516 12.601044,34.2735484 C19.0275824,36.8342581 26.5819231,37.8069355 26.5819231,37.8069355 C26.5819231,37.8069355 30.9915934,31.6172258 33.520989,25.1259677 C36.0256044,18.6242903 36.9497253,11.0463548 36.9497253,11.0463548 C36.9497253,11.0463548 30.7625275,6.54458065 24.335989,3.98387097 C17.9094505,1.42377419 10.3424176,0.483580645 10.3424176,0.483580645" id="Fill-33" fill="#D8232A"></path>
                    <path d="M1.77873626,24.3316452 L3.76598901,21.9345806 C5.05093407,22.9759032 6.44043956,23.496871 7.93510989,23.496871 C8.40593407,23.496871 8.76554945,23.4165806 9.01576923,23.256 C9.26538462,23.0954194 9.39049451,22.8643548 9.39049451,22.5609677 C9.39049451,22.2827097 9.24302198,22.0559355 8.94868132,21.8800323 C8.65434066,21.7047419 8.08379121,21.5171935 7.23884615,21.3173871 C6.80428571,21.2144194 6.42653846,21.1194194 6.10620879,21.0311613 C5.78527473,20.944129 5.4456044,20.8331935 5.08598901,20.6995806 C4.72637363,20.5665806 4.42054945,20.4274516 4.16912088,20.2828065 C3.91769231,20.1369355 3.6717033,19.9616452 3.43236264,19.7557097 C3.19241758,19.5497742 3.00082418,19.3279032 2.85697802,19.0882581 C2.71313187,18.8498387 2.59769231,18.5697419 2.51065934,18.2485806 C2.42423077,17.9280323 2.38071429,17.5768387 2.38071429,17.195 C2.38071429,15.9673548 2.83098901,14.9652581 3.73214286,14.1905484 C4.63269231,13.4152258 5.8432967,13.0284839 7.36395604,13.0284839 C9.47208791,13.0284839 11.2332967,13.6033871 12.6487912,14.7531935 L10.8628022,17.3040968 C9.66368132,16.4509355 8.46758242,16.0243548 7.27450549,16.0243548 C6.85747253,16.0243548 6.53956044,16.1046452 6.31895604,16.2652258 C6.09895604,16.4258065 5.98895604,16.6354194 5.98895604,16.8959032 C5.98895604,17.1986774 6.13582418,17.4328065 6.43016484,17.5995161 C6.72510989,17.7662258 7.31620879,17.9525484 8.20346154,18.157871 C8.98857143,18.3337742 9.65703297,18.5256129 10.207033,18.734 C10.7582418,18.943 11.2532418,19.2053226 11.6926374,19.519129 C12.1326374,19.8341613 12.4602198,20.2172258 12.6753846,20.6683226 C12.8911538,21.1194194 12.9987363,21.647129 12.9987363,22.2520645 C12.9987363,23.566129 12.5267033,24.6007097 11.5826374,25.3576452 C10.6385714,26.1139677 9.37840659,26.492129 7.80153846,26.492129 C6.6417033,26.492129 5.5417033,26.3094839 4.50214286,25.9435806 C3.46258242,25.5770645 2.55417582,25.0395484 1.77873626,24.3316452" id="Fill-35" fill="#FFFFFF"></path>
                    <polygon id="Fill-36" fill="#FFFFFF" points="14.7714286 26.2653548 18.3252747 26.2653548 18.3252747 13.2460645 14.7714286 13.2460645"></polygon>
                    <path d="M20.2508791,19.741 C20.2508791,18.8044839 20.4255495,17.9212903 20.7742857,17.0914194 C21.1236264,16.2603226 21.6029121,15.5450645 22.2115385,14.9444194 C22.8201648,14.3431613 23.5532967,13.8675484 24.4097253,13.5175806 C25.2655495,13.167 26.1836264,12.9917097 27.1627473,12.9917097 C28.2452198,12.9917097 29.2037912,13.154129 30.0366484,13.4783548 C30.8701099,13.8025806 31.6431319,14.2806452 32.3575275,14.9107097 L30.2735714,17.4499677 C29.7967033,17.0442258 29.3137912,16.7414516 28.8254396,16.5416452 C28.3364835,16.3418387 27.7882967,16.2425484 27.1802747,16.2425484 C26.2549451,16.2425484 25.4764835,16.5851613 24.8436813,17.2716129 C24.2108791,17.9574516 23.8947802,18.7983548 23.8947802,19.7943226 C23.8947802,20.8564839 24.2217582,21.7335484 24.8745055,22.4242903 C25.5284615,23.1150323 26.3625275,23.4600968 27.3773077,23.4600968 C28.2071429,23.4600968 28.8937363,23.2725484 29.4364835,22.8962258 L29.4364835,21.2628387 L26.8847253,21.2628387 L26.8847253,18.6567742 L32.7939011,18.6567742 L32.7939011,24.5369677 C31.1874176,25.865129 29.3337363,26.5289032 27.2340659,26.5289032 C25.9146703,26.5289032 24.724011,26.2420645 23.6620879,25.669 C22.5995604,25.0959355 21.7648901,24.2905806 21.1598901,23.2529355 C20.5536813,22.2159032 20.2508791,21.0452581 20.2508791,19.741" id="Fill-37" fill="#FFFFFF"></path>
                </g>
                <path d="M42.9435165,23.959 L45.8857143,20.4109032 C47.7877473,21.9517419 49.8451099,22.7221613 52.0571978,22.7221613 C52.7528571,22.7221613 53.2859341,22.603871 53.6564286,22.3660645 C54.0269231,22.128871 54.2118681,21.7862581 54.2118681,21.3376129 C54.2118681,20.9257419 53.9936813,20.5904839 53.5573077,20.33 C53.1209341,20.070129 52.2771978,19.7924839 51.0260989,19.4964516 C50.383022,19.3444516 49.823956,19.2034839 49.3495055,19.0735484 C48.8750549,18.9436129 48.3715934,18.7799677 47.8391209,18.5826129 C47.3072527,18.385871 46.8545604,18.1799355 46.4816484,17.9641935 C46.1093407,17.7496774 45.7460989,17.4898065 45.3913187,17.1851935 C45.0359341,16.8805806 44.7524725,16.5514516 44.5397253,16.1978065 C44.326978,15.8435484 44.1559341,15.4292258 44.0271978,14.9542258 C43.8990659,14.4792258 43.8343956,13.9594839 43.8343956,13.395 C43.8343956,11.5765161 44.501044,10.0939032 45.8349451,8.94654839 C47.1682418,7.79980645 48.9602747,7.22674194 51.211044,7.22674194 C54.3315385,7.22674194 56.9395055,8.07806452 59.0349451,9.78009677 L56.3907143,13.5561935 C54.6156044,12.293 52.8447253,11.6610968 51.0786813,11.6610968 C50.4621978,11.6610968 49.9907692,11.7806129 49.665,12.0171935 C49.3386264,12.255 49.1754396,12.5669677 49.1754396,12.951871 C49.1754396,13.3999032 49.3936264,13.7474194 49.83,13.9931935 C50.2657692,14.2395806 51.1409341,14.5147742 52.4536813,14.82 C53.6165385,15.079871 54.6059341,15.3642581 55.4206593,15.6731613 C56.2353846,15.9820645 56.9685165,16.3700323 57.6194505,16.8358387 C58.2703846,17.3016452 58.7557143,17.8685806 59.0742308,18.5360323 C59.3933516,19.2034839 59.5523077,19.9849355 59.5523077,20.881 C59.5523077,22.825129 58.8542308,24.358 57.4568681,25.4777742 C56.0595055,26.5975484 54.1937363,27.157129 51.858956,27.157129 C50.1424725,27.157129 48.5142308,26.8862258 46.9754396,26.3444194 C45.436044,25.802 44.0918681,25.0076774 42.9435165,23.959" id="Fill-38" fill="#FFFFFF"></path>
                <polygon id="Fill-39" fill="#FFFFFF" points="62.1771978 26.821871 67.4384615 26.821871 67.4384615 7.54851613 62.1771978 7.54851613"></polygon>
                <path d="M70.2881868,17.163129 C70.2881868,15.7773548 70.5462637,14.4700323 71.063022,13.2405484 C71.5797802,12.0110645 72.2893407,10.9519677 73.1904945,10.0626452 C74.0916484,9.17332258 75.1759341,8.46909677 76.443956,7.95058065 C77.711978,7.43206452 79.0700549,7.17280645 80.5193956,7.17280645 C82.1228571,7.17280645 83.5407692,7.41306452 84.7737363,7.89358065 C86.0073077,8.37348387 87.1526374,9.08016129 88.2097253,10.0136129 L85.1248901,13.7719355 C84.418956,13.1712903 83.703956,12.7232581 82.9810989,12.4272258 C82.257033,12.1318065 81.4459341,11.9840968 80.545989,11.9840968 C79.1764286,11.9840968 78.0232418,12.4921935 77.087033,13.5071613 C76.1502198,14.5227419 75.6824176,15.7675484 75.6824176,17.2428065 C75.6824176,18.8149032 76.1659341,20.1124194 77.132967,21.1347419 C78.1006044,22.1570645 79.3353846,22.6682258 80.8373077,22.6682258 C82.0654396,22.6682258 83.0814286,22.3905806 83.8858791,21.8346774 L83.8858791,19.4167742 L80.1084066,19.4167742 L80.1084066,15.5591613 L88.8552198,15.5591613 L88.8552198,24.263 C86.4775275,26.2285806 83.7341758,27.2110645 80.6251648,27.2110645 C78.6723626,27.2110645 76.9099451,26.7869355 75.3373077,25.9386774 C73.7646703,25.0898065 72.5298901,23.8977097 71.632967,22.3623871 C70.736044,20.8264516 70.2881868,19.0937742 70.2881868,17.163129" id="Fill-40" fill="#FFFFFF"></path>
                <polyline id="Fill-41" fill="#FFFFFF" points="92.9373077 26.821871 92.9373077 7.54851613 106.322857 7.54851613 106.322857 8.87912903 94.3425275 8.87912903 94.3425275 16.7684194 105.090495 16.7684194 105.090495 18.0990323 94.3425275 18.0990323 94.3425275 26.821871 92.9373077 26.821871"></polyline>
                <path d="M112.141374,17.5480323 L118.555824,17.5480323 C120.19011,17.5480323 121.522198,17.1514839 122.551484,16.3583871 C123.580769,15.5652903 124.095714,14.4749355 124.095714,13.0860968 C124.095714,11.7781613 123.614011,10.7497097 122.650604,10.0013548 C121.687802,9.2536129 120.349066,8.87912903 118.635,8.87912903 L112.141374,8.87912903 L112.141374,17.5480323 Z M110.736154,26.821871 L110.736154,7.54851613 L118.71478,7.54851613 C119.854066,7.54851613 120.886374,7.71951613 121.809286,8.05967742 C122.732802,8.40045161 123.485879,8.86625806 124.069121,9.45709677 C125.023462,10.4254839 125.50033,11.6347419 125.50033,13.0860968 C125.50033,14.6447097 124.992033,15.8950323 123.976044,16.8358387 C122.960055,17.7766452 121.612857,18.3638065 119.933846,18.5967097 L126.202637,26.821871 L124.413626,26.821871 L118.356978,18.8381935 L112.141374,18.8381935 L112.141374,26.821871 L110.736154,26.821871 L110.736154,26.821871 Z" id="Fill-42" fill="#FFFFFF"></path>
                <polyline id="Fill-43" fill="#FFFFFF" points="130.350604 26.821871 130.350604 7.54851613 143.869121 7.54851613 143.869121 8.87912903 131.755824 8.87912903 131.755824 16.4460323 142.649451 16.4460323 142.649451 17.7631613 131.755824 17.7631613 131.755824 25.504129 144.001484 25.504129 144.001484 26.821871 130.350604 26.821871"></polyline>
                <path d="M149.939066,25.504129 L154.855824,25.504129 C156.145604,25.504129 157.336264,25.2896129 158.427802,24.8593548 C159.518736,24.4290968 160.430769,23.8400968 161.164505,23.0923548 C161.897637,22.344 162.467582,21.4608065 162.873736,20.444 C163.280495,19.4271935 163.483571,18.341129 163.483571,17.1851935 C163.483571,16.0470323 163.280495,14.9726129 162.873736,13.9594839 C162.467582,12.9475806 161.897637,12.0668387 161.164505,11.3190968 C160.430769,10.5707419 159.518736,9.97683871 158.427802,9.538 C157.336264,9.09916129 156.145604,8.87912903 154.855824,8.87912903 L149.939066,8.87912903 L149.939066,25.504129 Z M148.533846,26.821871 L148.533846,7.54851613 L154.855824,7.54851613 C156.322088,7.54851613 157.687418,7.79551613 158.951209,8.28767742 C160.214396,8.78106452 161.283571,9.45525806 162.158132,10.310871 C163.032692,11.1670968 163.717473,12.1881935 164.212473,13.3747742 C164.706868,14.5625806 164.95467,15.8325161 164.95467,17.1851935 C164.95467,18.5292903 164.706868,19.7924839 164.212473,20.9747742 C163.717473,22.1576774 163.032692,23.1793871 162.158132,24.0392903 C161.283571,24.8998065 160.214396,25.5782903 158.951209,26.0759677 C157.687418,26.5730323 156.322088,26.821871 154.855824,26.821871 L148.533846,26.821871 L148.533846,26.821871 Z" id="Fill-44" fill="#FFFFFF"></path>
                <path d="M45.3266484,35.8787419 L46.5106593,35.8787419 C46.9131868,35.8787419 47.2371429,35.7806774 47.4825275,35.5833226 C47.7279121,35.3859677 47.8506044,35.1230323 47.8506044,34.7939032 C47.8506044,34.4574194 47.7321429,34.1975484 47.4958242,34.0142903 C47.2595055,33.8316452 46.9434066,33.7403226 46.5463187,33.7403226 L45.3266484,33.7403226 L45.3266484,35.8787419 Z M45.0087363,37.8069355 L45.0087363,33.4381613 L46.5704945,33.4381613 C47.050989,33.4381613 47.4384066,33.5589032 47.7315385,33.7979355 C48.0252747,34.0375806 48.1715385,34.3679355 48.1715385,34.7883871 C48.1715385,35.0114839 48.1268132,35.2125161 48.0367582,35.3914839 C47.9467033,35.5704516 47.824011,35.7157097 47.6686813,35.8284839 C47.5133516,35.9412581 47.3356593,36.0276774 47.1356044,36.0877419 C46.9349451,36.1471935 46.720989,36.1772258 46.4925275,36.1772258 L45.3266484,36.1772258 L45.3266484,37.8069355 L45.0087363,37.8069355 L45.0087363,37.8069355 Z" id="Fill-45" fill="#FFFFFF"></path>
                <path d="M51.2817582,35.7052903 L52.7359341,35.7052903 C53.1064286,35.7052903 53.408022,35.6151935 53.6419231,35.4356129 C53.8752198,35.2554194 53.9918681,35.0084194 53.9918681,34.6933871 C53.9918681,34.3973548 53.8824725,34.1644516 53.6642857,33.9946774 C53.4460989,33.8249032 53.1426923,33.7403226 52.7540659,33.7403226 L51.2817582,33.7403226 L51.2817582,35.7052903 Z M50.9638462,37.8069355 L50.9638462,33.4381613 L52.7721978,33.4381613 C53.0308791,33.4381613 53.2641758,33.4773871 53.4732967,33.5546129 C53.683022,33.6318387 53.8534615,33.7372581 53.9858242,33.870871 C54.2021978,34.0909032 54.3103846,34.364871 54.3103846,34.6933871 C54.3103846,35.0470323 54.1949451,35.3301935 53.9646703,35.5434839 C53.7343956,35.7573871 53.4291758,35.8897742 53.0484066,35.9424839 L54.4693407,37.8069355 L54.0637912,37.8069355 L52.6912088,35.9976452 L51.2817582,35.9976452 L51.2817582,37.8069355 L50.9638462,37.8069355 L50.9638462,37.8069355 Z" id="Fill-46" fill="#FFFFFF"></path>
                <path d="M57.3964286,35.6231613 C57.3964286,35.9804839 57.475,36.309 57.6321429,36.6080968 C57.7892857,36.9084194 58.0092857,37.1462258 58.2915385,37.3227419 C58.5737912,37.4992581 58.8880769,37.588129 59.235,37.588129 C59.5813187,37.588129 59.895,37.499871 60.1766484,37.3239677 C60.4582967,37.1486774 60.6764835,36.9114839 60.8318132,36.613 C60.9865385,36.3145161 61.0645055,35.9847742 61.0645055,35.6231613 C61.0645055,35.3565484 61.017967,35.1028065 60.9248901,34.8613226 C60.8318132,34.6198387 60.7042857,34.4108387 60.5429121,34.2349355 C60.3821429,34.0596452 60.1863187,33.9199032 59.9572527,33.8150968 C59.7281868,33.7102903 59.4834066,33.6581935 59.2229121,33.6581935 C58.8765934,33.6581935 58.5629121,33.7458387 58.2824725,33.9217419 C58.002033,34.0976452 57.7844505,34.3342258 57.6291209,34.6333226 C57.4743956,34.9311935 57.3964286,35.2615484 57.3964286,35.6231613 Z M57.0658242,35.6231613 C57.0658242,35.3265161 57.1184066,35.0415161 57.2235714,34.7681613 C57.3287363,34.4954194 57.4743956,34.2545484 57.6593407,34.048 C57.8442857,33.8408387 58.0745604,33.6753548 58.3483516,33.5515484 C58.6227473,33.4277419 58.9182967,33.3652258 59.235,33.3652258 C59.5535165,33.3652258 59.8484615,33.427129 60.121044,33.5497097 C60.3936264,33.6729032 60.6220879,33.8371613 60.8058242,34.0437097 C60.9901648,34.2496452 61.1346154,34.4892903 61.2385714,34.7626452 C61.3425275,35.0353871 61.3945055,35.3228387 61.3945055,35.6231613 C61.3945055,35.9191935 61.3419231,36.2041935 61.2373626,36.4769355 C61.1321978,36.7509032 60.9865385,36.9911613 60.7997802,37.1995484 C60.6136264,37.4073226 60.3833516,37.5740323 60.108956,37.6978387 C59.8345604,37.8216452 59.5396154,37.8829355 59.2229121,37.8829355 C58.9043956,37.8829355 58.6088462,37.8222581 58.3368681,37.6990645 C58.0642857,37.575871 57.8364286,37.411 57.6532967,37.2038387 C57.4701648,36.9966774 57.3263187,36.7570323 57.2223626,36.4836774 C57.1178022,36.2103226 57.0658242,35.9234839 57.0658242,35.6231613 L57.0658242,35.6231613 Z" id="Fill-47" fill="#FFFFFF"></path>
                <path d="M64.4690659,35.6231613 C64.4690659,35.9804839 64.5476374,36.309 64.7047802,36.6080968 C64.8619231,36.9084194 65.0819231,37.1462258 65.3641758,37.3227419 C65.647033,37.4992581 65.9613187,37.588129 66.3076374,37.588129 C66.653956,37.588129 66.9682418,37.499871 67.2492857,37.3239677 C67.5309341,37.1486774 67.7491209,36.9114839 67.9044505,36.613 C68.0591758,36.3145161 68.1371429,35.9847742 68.1371429,35.6231613 C68.1371429,35.3565484 68.0906044,35.1028065 67.9975275,34.8613226 C67.9044505,34.6198387 67.7769231,34.4108387 67.6155495,34.2349355 C67.4547802,34.0596452 67.2595604,33.9199032 67.0298901,33.8150968 C66.8008242,33.7102903 66.556044,33.6581935 66.2955495,33.6581935 C65.9492308,33.6581935 65.6355495,33.7458387 65.3557143,33.9217419 C65.0746703,34.0976452 64.8570879,34.3342258 64.7023626,34.6333226 C64.547033,34.9311935 64.4690659,35.2615484 64.4690659,35.6231613 Z M64.1384615,35.6231613 C64.1384615,35.3265161 64.191044,35.0415161 64.2962088,34.7681613 C64.4013736,34.4954194 64.547033,34.2545484 64.731978,34.048 C64.9175275,33.8408387 65.1471978,33.6753548 65.420989,33.5515484 C65.695989,33.4277419 65.9909341,33.3652258 66.3076374,33.3652258 C66.6261538,33.3652258 66.9210989,33.427129 67.1936813,33.5497097 C67.4662637,33.6729032 67.6947253,33.8371613 67.8784615,34.0437097 C68.0628022,34.2496452 68.2072527,34.4892903 68.3112088,34.7626452 C68.4157692,35.0353871 68.4677473,35.3228387 68.4677473,35.6231613 C68.4677473,35.9191935 68.4151648,36.2041935 68.31,36.4769355 C68.2048352,36.7509032 68.0591758,36.9911613 67.873022,37.1995484 C67.6868681,37.4073226 67.455989,37.5740323 67.1821978,37.6978387 C66.9071978,37.8216452 66.6122527,37.8829355 66.2955495,37.8829355 C65.977033,37.8829355 65.6820879,37.8222581 65.4095055,37.6990645 C65.1369231,37.575871 64.9090659,37.411 64.7259341,37.2038387 C64.5428022,36.9966774 64.398956,36.7570323 64.295,36.4836774 C64.1904396,36.2103226 64.1384615,35.9234839 64.1384615,35.6231613 L64.1384615,35.6231613 Z" id="Fill-48" fill="#FFFFFF"></path>
                <polyline id="Fill-49" fill="#FFFFFF" points="71.4008791 37.8069355 71.4008791 33.4381613 74.4349451 33.4381613 74.4349451 33.7403226 71.7193956 33.7403226 71.7193956 35.5287742 74.1557143 35.5287742 74.1557143 35.8303226 71.7193956 35.8303226 71.7193956 37.8069355 71.4008791 37.8069355"></polyline>
                <path d="M81.1123077,35.6231613 C81.1123077,35.9804839 81.1908791,36.309 81.3486264,36.6080968 C81.5051648,36.9084194 81.7251648,37.1462258 82.0074176,37.3227419 C82.2902747,37.4992581 82.6045604,37.588129 82.9508791,37.588129 C83.2971978,37.588129 83.6114835,37.499871 83.8925275,37.3239677 C84.1741758,37.1486774 84.3923626,36.9114839 84.5476923,36.613 C84.7024176,36.3145161 84.7803846,35.9847742 84.7803846,35.6231613 C84.7803846,35.3565484 84.7338462,35.1028065 84.6407692,34.8613226 C84.5476923,34.6198387 84.4207692,34.4108387 84.2587912,34.2349355 C84.098022,34.0596452 83.9028022,33.9199032 83.6731319,33.8150968 C83.4440659,33.7102903 83.1992857,33.6581935 82.9387912,33.6581935 C82.5924725,33.6581935 82.2793956,33.7458387 81.998956,33.9217419 C81.7179121,34.0976452 81.5003297,34.3342258 81.3456044,34.6333226 C81.1902747,34.9311935 81.1123077,35.2615484 81.1123077,35.6231613 Z M80.7823077,35.6231613 C80.7823077,35.3265161 80.8342857,35.0415161 80.9394505,34.7681613 C81.0452198,34.4954194 81.1902747,34.2545484 81.3752198,34.048 C81.5607692,33.8408387 81.7904396,33.6753548 82.0648352,33.5515484 C82.3392308,33.4277419 82.6341758,33.3652258 82.9508791,33.3652258 C83.2693956,33.3652258 83.5649451,33.427129 83.8369231,33.5497097 C84.1095055,33.6729032 84.337967,33.8371613 84.5223077,34.0437097 C84.706044,34.2496452 84.8504945,34.4892903 84.9544505,34.7626452 C85.059011,35.0353871 85.110989,35.3228387 85.110989,35.6231613 C85.110989,35.9191935 85.0584066,36.2041935 84.9532418,36.4769355 C84.8480769,36.7509032 84.7024176,36.9911613 84.5162637,37.1995484 C84.3301099,37.4073226 84.0992308,37.5740323 83.8254396,37.6978387 C83.551044,37.8216452 83.2554945,37.8829355 82.9387912,37.8829355 C82.6208791,37.8829355 82.3253297,37.8222581 82.0527473,37.6990645 C81.7801648,37.575871 81.5523077,37.411 81.3691758,37.2038387 C81.186044,36.9966774 81.0421978,36.7570323 80.9382418,36.4836774 C80.8336813,36.2103226 80.7823077,35.9234839 80.7823077,35.6231613 L80.7823077,35.6231613 Z" id="Fill-50" fill="#FFFFFF"></path>
                <polyline id="Fill-51" fill="#FFFFFF" points="88.0441209 37.8069355 88.0441209 33.4381613 91.0781868 33.4381613 91.0781868 33.7403226 88.3626374 33.7403226 88.3626374 35.5287742 90.798956 35.5287742 90.798956 35.8303226 88.3626374 35.8303226 88.3626374 37.8069355 88.0441209 37.8069355"></polyline>
                <path d="M97.4249451,35.6231613 C97.4249451,35.2149677 97.5168132,34.8386452 97.6999451,34.4941935 C97.8830769,34.1503548 98.1405495,33.8757742 98.4717582,33.6716774 C98.802967,33.4675806 99.171044,33.3652258 99.575989,33.3652258 C99.7621429,33.3652258 99.9343956,33.383 100.092747,33.4173226 C100.250495,33.4522581 100.397363,33.5037419 100.530934,33.5723871 C100.66511,33.6416452 100.78478,33.7158065 100.890549,33.7936452 C100.99511,33.8714839 101.108736,33.9677097 101.231429,34.0810968 L101.024121,34.301129 C100.815604,34.0958065 100.596209,33.9370645 100.365934,33.8255161 C100.135659,33.7139677 99.8703297,33.6581935 99.5699451,33.6581935 C99.3154945,33.6581935 99.0761538,33.7090645 98.8519231,33.8101935 C98.6276923,33.9119355 98.4354945,34.0498387 98.2753297,34.2232903 C98.1151648,34.3967419 97.9882418,34.605129 97.8951648,34.8472258 C97.8020879,35.0905484 97.7555495,35.3491935 97.7555495,35.6231613 C97.7555495,35.8946774 97.8026923,36.1527097 97.8963736,36.3954194 C97.9906593,36.6375161 98.1187912,36.8465161 98.2795604,37.0211935 C98.4409341,37.195871 98.6343407,37.3337742 98.8597802,37.4355161 C99.0846154,37.5372581 99.3233516,37.588129 99.575989,37.588129 C99.873956,37.588129 100.138681,37.5317419 100.368956,37.4208065 C100.599231,37.3086452 100.829505,37.1382581 101.05978,36.9090323 L101.276154,37.1217097 C101.025934,37.3711613 100.767253,37.5611613 100.500714,37.689871 C100.23478,37.8185806 99.9223077,37.8829355 99.5639011,37.8829355 C99.1613736,37.8829355 98.7957143,37.7830323 98.4675275,37.5832258 C98.1387363,37.3834194 97.8830769,37.1112903 97.6999451,36.7668387 C97.5168132,36.423 97.4249451,36.0417742 97.4249451,35.6231613" id="Fill-52" fill="#FFFFFF"></path>
                <path d="M104.140385,35.6231613 C104.140385,35.9804839 104.218956,36.309 104.376703,36.6080968 C104.533242,36.9084194 104.753242,37.1462258 105.035495,37.3227419 C105.318352,37.4992581 105.632637,37.588129 105.978956,37.588129 C106.325275,37.588129 106.63956,37.499871 106.921209,37.3239677 C107.202253,37.1486774 107.42044,36.9114839 107.575769,36.613 C107.730495,36.3145161 107.808462,35.9847742 107.808462,35.6231613 C107.808462,35.3565484 107.761923,35.1028065 107.668846,34.8613226 C107.575769,34.6198387 107.448846,34.4108387 107.287473,34.2349355 C107.126099,34.0596452 106.930879,33.9199032 106.701209,33.8150968 C106.472143,33.7102903 106.227363,33.6581935 105.966868,33.6581935 C105.620549,33.6581935 105.307473,33.7458387 105.027033,33.9217419 C104.745989,34.0976452 104.528407,34.3342258 104.373681,34.6333226 C104.218352,34.9311935 104.140385,35.2615484 104.140385,35.6231613 Z M103.810385,35.6231613 C103.810385,35.3265161 103.862967,35.0415161 103.967527,34.7681613 C104.073297,34.4954194 104.218352,34.2545484 104.403297,34.048 C104.588846,33.8408387 104.818516,33.6753548 105.092912,33.5515484 C105.367308,33.4277419 105.662857,33.3652258 105.978956,33.3652258 C106.297473,33.3652258 106.593022,33.427129 106.865,33.5497097 C107.137582,33.6729032 107.366044,33.8371613 107.550385,34.0437097 C107.734121,34.2496452 107.878571,34.4892903 107.982527,34.7626452 C108.087088,35.0353871 108.139066,35.3228387 108.139066,35.6231613 C108.139066,35.9191935 108.086484,36.2041935 107.981319,36.4769355 C107.876154,36.7509032 107.730495,36.9911613 107.544341,37.1995484 C107.358187,37.4073226 107.127308,37.5740323 106.853516,37.6978387 C106.579121,37.8216452 106.283571,37.8829355 105.966868,37.8829355 C105.648956,37.8829355 105.353407,37.8222581 105.080824,37.6990645 C104.808242,37.575871 104.580385,37.411 104.397253,37.2038387 C104.214121,36.9966774 104.070275,36.7570323 103.966319,36.4836774 C103.862363,36.2103226 103.810385,35.9234839 103.810385,35.6231613 L103.810385,35.6231613 Z" id="Fill-53" fill="#FFFFFF"></path>
                <polyline id="Fill-54" fill="#FFFFFF" points="111.072198 37.8069355 111.072198 33.4381613 111.372582 33.4381613 114.346813 37.2406129 114.346813 33.4381613 114.653242 33.4381613 114.653242 37.8069355 114.412692 37.8069355 111.378626 33.9260323 111.378626 37.8069355 111.072198 37.8069355"></polyline>
                <path d="M117.499341,37.170129 L117.706044,36.9268065 C117.950824,37.1541935 118.191978,37.3190645 118.43011,37.4214194 C118.668846,37.5243871 118.942637,37.5752581 119.253297,37.5752581 C119.573626,37.5752581 119.83533,37.4937419 120.037198,37.328871 C120.23967,37.1646129 120.340604,36.9531613 120.340604,36.695129 C120.340604,36.5327097 120.307967,36.397871 120.243297,36.29 C120.178022,36.1827419 120.055934,36.0852903 119.877033,35.9976452 C119.697527,35.9106129 119.446703,35.8333871 119.123956,35.7659677 C118.605385,35.6587097 118.233681,35.5085484 118.008242,35.3167097 C117.782802,35.124871 117.670385,34.8613226 117.670385,34.5260645 C117.670385,34.1993871 117.801538,33.9260323 118.063846,33.7066129 C118.326154,33.4878065 118.656758,33.3780968 119.055055,33.3780968 C119.35967,33.3780968 119.625,33.4197742 119.851044,33.5043548 C120.077692,33.5889355 120.303736,33.7231613 120.530385,33.9076452 L120.329121,34.1638387 C120.130879,33.9891613 119.927802,33.8635161 119.720495,33.7862903 C119.513187,33.7090645 119.287747,33.6698387 119.042967,33.6698387 C118.730495,33.6698387 118.477253,33.7495161 118.282637,33.9094839 C118.088626,34.0688387 117.991319,34.2686452 117.991319,34.5082903 C117.991319,34.6725484 118.023956,34.8092258 118.089231,34.9177097 C118.154505,35.0261935 118.279615,35.1267097 118.46456,35.2192581 C118.65011,35.3118065 118.91,35.3927097 119.244231,35.4613548 C119.742857,35.5649355 120.104286,35.7120323 120.327308,35.9032581 C120.55033,36.093871 120.662143,36.3519032 120.662143,36.6773548 C120.662143,37.0260968 120.527967,37.3123226 120.259615,37.5341935 C119.991264,37.7566774 119.649176,37.8682258 119.232143,37.8682258 C118.893681,37.8682258 118.586044,37.8112258 118.308626,37.6978387 C118.031209,37.5838387 117.761648,37.4079355 117.499341,37.170129" id="Fill-55" fill="#FFFFFF"></path>
                <path d="M123.487088,35.9915161 L123.487088,33.4381613 L123.808626,33.4381613 L123.808626,35.9614839 C123.808626,36.4732581 123.937363,36.8710323 124.194835,37.1554194 C124.451703,37.4398065 124.808901,37.5813871 125.265824,37.5813871 C125.711868,37.5813871 126.063022,37.4459355 126.318681,37.1731935 C126.573736,36.9016774 126.701868,36.5069677 126.701868,35.9915161 L126.701868,33.4381613 L127.01978,33.4381613 L127.01978,35.9547419 C127.01978,36.5682581 126.859615,37.0420323 126.539286,37.3760645 C126.218956,37.7100968 125.79044,37.8774194 125.253736,37.8774194 C124.995055,37.8774194 124.758132,37.835129 124.541758,37.7523871 C124.325385,37.6690323 124.139231,37.5489032 123.983297,37.3932258 C123.826758,37.2369355 123.705275,37.0389677 123.618242,36.8005484 C123.530604,36.5615161 123.487088,36.2924516 123.487088,35.9915161" id="Fill-56" fill="#FFFFFF"></path>
                <polyline id="Fill-57" fill="#FFFFFF" points="130.076209 37.8069355 130.076209 33.4381613 130.376593 33.4381613 132.106978 36.0215484 133.834341 33.4381613 134.137747 33.4381613 134.137747 37.8069355 133.816209 37.8069355 133.816209 34.0142903 132.113022 36.5271935 132.088846 36.5271935 130.382637 34.0142903 130.382637 37.8069355 130.076209 37.8069355"></polyline>
                <path d="M137.578571,35.8787419 L138.762582,35.8787419 C139.16511,35.8787419 139.488462,35.7806774 139.734451,35.5833226 C139.979231,35.3859677 140.101923,35.1230323 140.101923,34.7939032 C140.101923,34.4574194 139.984066,34.1975484 139.747747,34.0142903 C139.511429,33.8316452 139.194725,33.7403226 138.798242,33.7403226 L137.578571,33.7403226 L137.578571,35.8787419 Z M137.260055,37.8069355 L137.260055,33.4381613 L138.822418,33.4381613 C139.302912,33.4381613 139.689725,33.5589032 139.983462,33.7979355 C140.277198,34.0375806 140.423462,34.3679355 140.423462,34.7883871 C140.423462,35.0114839 140.378132,35.2125161 140.288681,35.3914839 C140.198626,35.5704516 140.075934,35.7157097 139.920604,35.8284839 C139.765275,35.9412581 139.587582,36.0276774 139.386923,36.0877419 C139.186868,36.1471935 138.972308,36.1772258 138.744451,36.1772258 L137.578571,36.1772258 L137.578571,37.8069355 L137.260055,37.8069355 L137.260055,37.8069355 Z" id="Fill-58" fill="#FFFFFF"></path>
                <polyline id="Fill-59" fill="#FFFFFF" points="142.909341 33.7403226 142.909341 33.4381613 146.231703 33.4381613 146.231703 33.7403226 144.72978 33.7403226 144.72978 37.8069355 144.408242 37.8069355 144.408242 33.7403226 142.909341 33.7403226"></polyline>
                <polygon id="Fill-60" fill="#FFFFFF" points="149.08989 37.8069355 149.411429 37.8069355 149.411429 33.4381613 149.08989 33.4381613"></polygon>
                <path d="M152.71989,35.6231613 C152.71989,35.9804839 152.798462,36.309 152.956209,36.6080968 C153.112747,36.9084194 153.332747,37.1462258 153.615,37.3227419 C153.897857,37.4992581 154.212143,37.588129 154.558462,37.588129 C154.90478,37.588129 155.219066,37.499871 155.500714,37.3239677 C155.781758,37.1486774 155.999945,36.9114839 156.155275,36.613 C156.31,36.3145161 156.387967,35.9847742 156.387967,35.6231613 C156.387967,35.3565484 156.341429,35.1028065 156.248352,34.8613226 C156.155275,34.6198387 156.028352,34.4108387 155.866374,34.2349355 C155.705604,34.0596452 155.510385,33.9199032 155.280714,33.8150968 C155.051648,33.7102903 154.806868,33.6581935 154.546374,33.6581935 C154.200055,33.6581935 153.886978,33.7458387 153.606538,33.9217419 C153.325495,34.0976452 153.107912,34.3342258 152.953187,34.6333226 C152.797857,34.9311935 152.71989,35.2615484 152.71989,35.6231613 Z M152.38989,35.6231613 C152.38989,35.3265161 152.441868,35.0415161 152.547033,34.7681613 C152.652802,34.4954194 152.797857,34.2545484 152.982802,34.048 C153.168352,33.8408387 153.398022,33.6753548 153.672418,33.5515484 C153.946813,33.4277419 154.241758,33.3652258 154.558462,33.3652258 C154.876978,33.3652258 155.172527,33.427129 155.444505,33.5497097 C155.717088,33.6729032 155.945549,33.8371613 156.12989,34.0437097 C156.313626,34.2496452 156.458077,34.4892903 156.562033,34.7626452 C156.666593,35.0353871 156.718571,35.3228387 156.718571,35.6231613 C156.718571,35.9191935 156.665989,36.2041935 156.560824,36.4769355 C156.455659,36.7509032 156.31,36.9911613 156.123846,37.1995484 C155.937692,37.4073226 155.706813,37.5740323 155.433022,37.6978387 C155.158626,37.8216452 154.863077,37.8829355 154.546374,37.8829355 C154.228462,37.8829355 153.932912,37.8222581 153.66033,37.6990645 C153.387747,37.575871 153.15989,37.411 152.976758,37.2038387 C152.793626,36.9966774 152.64978,36.7570323 152.545824,36.4836774 C152.441264,36.2103226 152.38989,35.9234839 152.38989,35.6231613 L152.38989,35.6231613 Z" id="Fill-61" fill="#FFFFFF"></path>
                <polyline id="Fill-62" fill="#FFFFFF" points="159.651703 37.8069355 159.651703 33.4381613 159.952088 33.4381613 162.926319 37.2406129 162.926319 33.4381613 163.232747 33.4381613 163.232747 37.8069355 162.992198 37.8069355 159.958132 33.9260323 159.958132 37.8069355 159.651703 37.8069355"></polyline>
            </g>
        </g>
    </g>
</svg>